<svg width="58" height="58" viewBox="0 0 58 58" fill="none" xmlns="http://www.w3.org/2000/svg">
<path d="M32.7142 0.559524C31.546 0.559524 30.4257 1.0236 29.5996 1.84965C28.7735 2.6757 28.3095 3.79607 28.3095 4.96429C28.3095 6.1325 28.7735 7.25287 29.5996 8.07892C30.4257 8.90497 31.546 9.36905 32.7142 9.36905H41.9025L17.7099 33.5617C17.2905 33.9675 16.9559 34.4525 16.7255 34.9888C16.4947 35.5262 16.3732 36.1041 16.3681 36.689C16.363 37.2739 16.4744 37.8539 16.6959 38.3952C16.9174 38.9365 17.2445 39.4283 17.658 39.8419C18.0716 40.2555 18.5634 40.5826 19.1047 40.804C19.6461 41.0255 20.2261 41.137 20.8109 41.1319C21.3958 41.1268 21.9738 41.0053 22.5112 40.7744C23.0474 40.5441 23.5325 40.2095 23.9383 39.7901L48.1309 15.5975V24.7857C48.1309 25.9539 48.595 27.0743 49.421 27.9003C50.2471 28.7264 51.3675 29.1905 52.5357 29.1905C53.7039 29.1905 54.8243 28.7264 55.6503 27.9003C56.4764 27.0743 56.9404 25.9539 56.9404 24.7857V4.96429C56.9404 3.79607 56.4764 2.6757 55.6503 1.84965C54.8243 1.0236 53.7039 0.559524 52.5357 0.559524H32.7142Z" fill="black" stroke="black" stroke-width="0.880952"/>
<path d="M8.92857 8.42859C6.69318 8.42859 4.54934 9.3166 2.96867 10.8973C1.38801 12.4779 0.5 14.6218 0.5 16.8572V48.5714C0.5 50.8068 1.38801 52.9507 2.96867 54.5313C4.54933 56.112 6.69318 57 8.92857 57H40.6429C42.8783 57 45.0221 56.112 46.6028 54.5313C48.1834 52.9507 49.0714 50.8068 49.0714 48.5714V36.6786C49.0714 35.4946 48.6011 34.3591 47.7639 33.5219C46.9267 32.6846 45.7911 32.2143 44.6071 32.2143C43.4231 32.2143 42.2876 32.6846 41.4504 33.5219C40.6132 34.3591 40.1429 35.4946 40.1429 36.6786V48.0714H9.42857V17.3572H20.8214C22.0054 17.3572 23.1409 16.8868 23.9782 16.0496C24.8154 15.2124 25.2857 14.0769 25.2857 12.8929C25.2857 11.7089 24.8154 10.5734 23.9782 9.73615C23.1409 8.89893 22.0054 8.42859 20.8214 8.42859H8.92857Z" fill="black" stroke="black"/>
</svg>
