<svg width="58" height="58" viewBox="0 0 58 58" fill="none" xmlns="http://www.w3.org/2000/svg">
<path d="M32.7142 0.559524C31.546 0.559524 30.4256 1.0236 29.5996 1.84965C28.7735 2.6757 28.3094 3.79607 28.3094 4.96429C28.3094 6.1325 28.7735 7.25287 29.5996 8.07892C30.4256 8.90497 31.546 9.36905 32.7142 9.36905H41.9024L17.7098 33.5617C17.2904 33.9675 16.9558 34.4525 16.7255 34.9888C16.4946 35.5262 16.3731 36.1041 16.368 36.689C16.363 37.2739 16.4744 37.8539 16.6959 38.3952C16.9174 38.9365 17.2444 39.4283 17.658 39.8419C18.0716 40.2555 18.5634 40.5826 19.1047 40.804C19.646 41.0255 20.226 41.137 20.8109 41.1319C21.3958 41.1268 21.9738 41.0053 22.5112 40.7744C23.0474 40.5441 23.5325 40.2095 23.9382 39.7901L48.1309 15.5975V24.7857C48.1309 25.9539 48.5949 27.0743 49.421 27.9003C50.2471 28.7264 51.3674 29.1905 52.5356 29.1905C53.7038 29.1905 54.8242 28.7264 55.6503 27.9003C56.4763 27.0743 56.9404 25.9539 56.9404 24.7857V4.96429C56.9404 3.79607 56.4763 2.6757 55.6503 1.84965C54.8242 1.0236 53.7038 0.559524 52.5356 0.559524H32.7142Z" fill="#6000AB" stroke="#6000AB" stroke-width="0.880952"/>
<path d="M8.92857 8.48811C6.70896 8.48811 4.58026 9.36985 3.01076 10.9393C1.44126 12.5089 0.559524 14.6376 0.559524 16.8572V48.5714C0.559524 50.7911 1.44126 52.9198 3.01076 54.4893C4.58026 56.0588 6.70896 56.9405 8.92857 56.9405H40.6429C42.8625 56.9405 44.9912 56.0588 46.5607 54.4893C48.1302 52.9198 49.0119 50.7911 49.0119 48.5714V36.6786C49.0119 35.5104 48.5478 34.39 47.7218 33.564C46.8957 32.7379 45.7754 32.2738 44.6071 32.2738C43.4389 32.2738 42.3186 32.7379 41.4925 33.564C40.6665 34.39 40.2024 35.5104 40.2024 36.6786V48.131H9.36905V17.2976H20.8214C21.9896 17.2976 23.11 16.8336 23.9361 16.0075C24.7621 15.1815 25.2262 14.0611 25.2262 12.8929C25.2262 11.7247 24.7621 10.6043 23.9361 9.77824C23.11 8.95219 21.9896 8.48811 20.8214 8.48811H8.92857Z" fill="#6000AB" stroke="#6000AB" stroke-width="0.880952"/>
</svg>
