<svg width="560" height="440" viewBox="0 0 560 440" fill="none" xmlns="http://www.w3.org/2000/svg">
<g clip-path="url(#clip0_59_57)">
<path d="M326.199 77.5669C336.695 77.5669 345.203 68.3754 345.203 57.0371C345.203 45.6988 336.695 36.5073 326.199 36.5073C315.704 36.5073 307.196 45.6988 307.196 57.0371C307.196 68.3754 315.704 77.5669 326.199 77.5669Z" fill="white"/>
<path d="M473.616 382.252C501.863 359.01 515.354 319.953 506.908 282.695C506.698 281.77 506.477 280.846 506.244 279.924C500.644 257.809 486.791 236.79 466.6 229.723C449.647 223.79 431.143 228.352 413.456 225.993C378.737 221.361 351.82 191.013 332.881 159.239C313.942 127.464 299.386 91.8973 274.219 65.647C232.737 22.3778 165.068 13.0619 113.635 41.2269C62.2025 69.392 29.4405 131.879 30.8377 194.154C32.2349 256.43 66.4569 315.97 116.156 347.56C134.413 359.165 155.529 367.386 176.544 364.509C194.779 362.013 211.347 351.428 229.496 348.286C258.03 343.345 286.382 357.282 311.061 373.523C335.741 389.764 359.58 409.015 387.625 416.544C414.857 423.855 448.594 402.841 473.616 382.252Z" fill="white"/>
<path d="M433.032 42.5347C432.413 42.0887 431.787 41.6658 431.168 41.2352C413.268 28.8683 394.083 18.8216 374.009 11.3026L369.354 80.6713H339.846V1.17636C337.989 0.761164 336.117 0.369034 334.245 -3.05176e-05V80.6713H299.178C279.873 80.6713 261.36 72.3867 247.709 57.64C234.059 42.8934 226.39 22.8926 226.39 2.0376V2.03753C224.511 2.4758 222.646 2.94482 220.782 3.44459V80.6713H192.22L187.786 14.5242C167.156 23.0713 147.571 34.3113 129.467 47.9937C129.154 48.2244 128.841 48.4628 128.535 48.6934C126.962 49.8852 125.41 51.1 123.866 52.3303V316.973H208.042L206.554 294.713L198.369 172.499H363.198L355.013 294.713L353.526 316.973H436.769V45.2104C435.531 44.3031 434.285 43.4112 433.032 42.5347ZM220.782 152.316H197.017L192.626 86.7301H220.782V152.316ZM334.245 152.316H294.331V151.017C294.331 150.392 294.217 149.773 293.996 149.196C293.774 148.619 293.45 148.095 293.041 147.654C292.631 147.212 292.146 146.863 291.611 146.624C291.077 146.386 290.504 146.264 289.926 146.265H272.574C271.996 146.265 271.424 146.387 270.89 146.626C270.357 146.865 269.872 147.215 269.463 147.656C269.055 148.097 268.731 148.621 268.51 149.198C268.289 149.774 268.175 150.392 268.175 151.017V152.316H226.39V86.7301H334.245V152.316ZM339.846 152.316V86.7301H368.949L364.557 152.316H339.846Z" fill="#3F3D56"/>
<path d="M0 333.919C6.18294 341.834 12.8705 349.272 20.0137 356.179L539.986 356.948C547.129 350.041 553.817 342.603 560 334.688L0 333.919Z" fill="#3F3D56"/>
<path d="M352.61 262.644V328.541C352.611 329.38 352.92 330.186 353.47 330.779C354.019 331.373 354.765 331.707 355.542 331.708H445.934C446.712 331.707 447.457 331.373 448.007 330.779C448.556 330.186 448.865 329.38 448.866 328.541V262.644C448.864 261.805 448.554 261.001 448.005 260.408C447.455 259.815 446.711 259.482 445.934 259.481H355.542C354.765 259.482 354.021 259.815 353.471 260.408C352.922 261.001 352.612 261.805 352.61 262.644Z" fill="#3F3D56"/>
<path d="M354.731 263.464V327.728C354.731 328.176 354.897 328.607 355.19 328.924C355.484 329.241 355.882 329.42 356.298 329.42H445.182C445.597 329.42 445.995 329.241 446.289 328.924C446.582 328.607 446.748 328.176 446.749 327.728V263.464C446.748 263.015 446.584 262.584 446.29 262.266C445.996 261.948 445.598 261.769 445.182 261.768H356.298C355.882 261.769 355.483 261.948 355.189 262.266C354.896 262.584 354.731 263.015 354.731 263.464Z" fill="#0E0E0E"/>
<path d="M350.72 341.392C350.885 341.617 351.096 341.797 351.335 341.921C351.575 342.045 351.837 342.109 352.103 342.107H448.892C449.157 342.107 449.418 342.043 449.657 341.92C449.896 341.796 450.106 341.617 450.273 341.395C450.44 341.173 450.559 340.914 450.621 340.636C450.683 340.358 450.687 340.068 450.633 339.788L449.13 332.079C449.068 331.764 448.934 331.472 448.74 331.228C448.547 330.983 448.3 330.796 448.021 330.681C447.82 330.596 447.606 330.552 447.389 330.552H353.6C353.383 330.552 353.169 330.596 352.967 330.681C352.689 330.796 352.442 330.983 352.249 331.228C352.055 331.472 351.921 331.764 351.859 332.079L350.356 339.788C350.303 340.068 350.308 340.357 350.37 340.635C350.433 340.912 350.553 341.171 350.72 341.392Z" fill="#2F2E41"/>
<path d="M444.068 333.873H446.354C446.546 333.873 446.702 333.705 446.702 333.498V332.316C446.702 332.109 446.546 331.941 446.354 331.941H444.068C443.876 331.941 443.721 332.109 443.721 332.316V333.498C443.721 333.705 443.876 333.873 444.068 333.873Z" fill="#3F3D56"/>
<path d="M438.106 333.873H440.393C440.584 333.873 440.74 333.705 440.74 333.498V332.316C440.74 332.109 440.584 331.941 440.393 331.941H438.106C437.914 331.941 437.759 332.109 437.759 332.316V333.498C437.759 333.705 437.914 333.873 438.106 333.873Z" fill="#3F3D56"/>
<path d="M432.144 333.873H434.43C434.622 333.873 434.778 333.705 434.778 333.498V332.316C434.778 332.109 434.622 331.941 434.43 331.941H432.144C431.952 331.941 431.797 332.109 431.797 332.316V333.498C431.797 333.705 431.952 333.873 432.144 333.873Z" fill="#3F3D56"/>
<path d="M426.182 333.873H428.468C428.66 333.873 428.816 333.705 428.816 333.498V332.316C428.816 332.109 428.66 331.941 428.468 331.941H426.182C425.99 331.941 425.835 332.109 425.835 332.316V333.498C425.835 333.705 425.99 333.873 426.182 333.873Z" fill="#3F3D56"/>
<path d="M420.22 333.873H422.506C422.698 333.873 422.854 333.705 422.854 333.498V332.316C422.854 332.109 422.698 331.941 422.506 331.941H420.22C420.028 331.941 419.872 332.109 419.872 332.316V333.498C419.872 333.705 420.028 333.873 420.22 333.873Z" fill="#3F3D56"/>
<path d="M414.258 333.873H416.544C416.736 333.873 416.891 333.705 416.891 333.498V332.316C416.891 332.109 416.736 331.941 416.544 331.941H414.258C414.066 331.941 413.91 332.109 413.91 332.316V333.498C413.91 333.705 414.066 333.873 414.258 333.873Z" fill="#3F3D56"/>
<path d="M408.296 333.873H410.582C410.774 333.873 410.929 333.705 410.929 333.498V332.316C410.929 332.109 410.774 331.941 410.582 331.941H408.296C408.104 331.941 407.948 332.109 407.948 332.316V333.498C407.948 333.705 408.104 333.873 408.296 333.873Z" fill="#3F3D56"/>
<path d="M402.334 333.873H404.62C404.812 333.873 404.967 333.705 404.967 333.498V332.316C404.967 332.109 404.812 331.941 404.62 331.941H402.334C402.142 331.941 401.986 332.109 401.986 332.316V333.498C401.986 333.705 402.142 333.873 402.334 333.873Z" fill="#3F3D56"/>
<path d="M396.372 333.873H398.658C398.85 333.873 399.005 333.705 399.005 333.498V332.316C399.005 332.109 398.85 331.941 398.658 331.941H396.372C396.18 331.941 396.024 332.109 396.024 332.316V333.498C396.024 333.705 396.18 333.873 396.372 333.873Z" fill="#3F3D56"/>
<path d="M390.409 333.873H392.695C392.887 333.873 393.043 333.705 393.043 333.498V332.316C393.043 332.109 392.887 331.941 392.695 331.941H390.409C390.217 331.941 390.062 332.109 390.062 332.316V333.498C390.062 333.705 390.217 333.873 390.409 333.873Z" fill="#3F3D56"/>
<path d="M384.447 333.873H386.733C386.925 333.873 387.081 333.705 387.081 333.498V332.316C387.081 332.109 386.925 331.941 386.733 331.941H384.447C384.255 331.941 384.1 332.109 384.1 332.316V333.498C384.1 333.705 384.255 333.873 384.447 333.873Z" fill="#3F3D56"/>
<path d="M378.485 333.873H380.771C380.963 333.873 381.119 333.705 381.119 333.498V332.316C381.119 332.109 380.963 331.941 380.771 331.941H378.485C378.293 331.941 378.138 332.109 378.138 332.316V333.498C378.138 333.705 378.293 333.873 378.485 333.873Z" fill="#3F3D56"/>
<path d="M372.523 333.873H374.809C375.001 333.873 375.157 333.705 375.157 333.498V332.316C375.157 332.109 375.001 331.941 374.809 331.941H372.523C372.331 331.941 372.176 332.109 372.176 332.316V333.498C372.176 333.705 372.331 333.873 372.523 333.873Z" fill="#3F3D56"/>
<path d="M366.561 333.873H368.847C369.039 333.873 369.195 333.705 369.195 333.498V332.316C369.195 332.109 369.039 331.941 368.847 331.941H366.561C366.369 331.941 366.213 332.109 366.213 332.316V333.498C366.213 333.705 366.369 333.873 366.561 333.873Z" fill="#3F3D56"/>
<path d="M360.599 333.873H362.885C363.077 333.873 363.232 333.705 363.232 333.498V332.316C363.232 332.109 363.077 331.941 362.885 331.941H360.599C360.407 331.941 360.251 332.109 360.251 332.316V333.498C360.251 333.705 360.407 333.873 360.599 333.873Z" fill="#3F3D56"/>
<path d="M354.637 333.873H356.923C357.115 333.873 357.27 333.705 357.27 333.498V332.316C357.27 332.109 357.115 331.941 356.923 331.941H354.637C354.445 331.941 354.289 332.109 354.289 332.316V333.498C354.289 333.705 354.445 333.873 354.637 333.873Z" fill="#3F3D56"/>
<path d="M444.139 337.093H446.425C446.617 337.093 446.772 336.925 446.772 336.718V335.537C446.772 335.329 446.617 335.161 446.425 335.161H444.139C443.947 335.161 443.791 335.329 443.791 335.537V336.718C443.791 336.925 443.947 337.093 444.139 337.093Z" fill="#3F3D56"/>
<path d="M438.177 337.093H440.463C440.655 337.093 440.81 336.925 440.81 336.718V335.537C440.81 335.329 440.655 335.161 440.463 335.161H438.177C437.985 335.161 437.829 335.329 437.829 335.537V336.718C437.829 336.925 437.985 337.093 438.177 337.093Z" fill="#3F3D56"/>
<path d="M432.215 337.093H434.501C434.693 337.093 434.848 336.925 434.848 336.718V335.537C434.848 335.329 434.693 335.161 434.501 335.161H432.215C432.023 335.161 431.867 335.329 431.867 335.537V336.718C431.867 336.925 432.023 337.093 432.215 337.093Z" fill="#3F3D56"/>
<path d="M426.253 337.093H428.539C428.731 337.093 428.886 336.925 428.886 336.718V335.537C428.886 335.329 428.731 335.161 428.539 335.161H426.253C426.061 335.161 425.905 335.329 425.905 335.537V336.718C425.905 336.925 426.061 337.093 426.253 337.093Z" fill="#3F3D56"/>
<path d="M420.291 337.093H422.577C422.769 337.093 422.924 336.925 422.924 336.718V335.537C422.924 335.329 422.769 335.161 422.577 335.161H420.291C420.099 335.161 419.943 335.329 419.943 335.537V336.718C419.943 336.925 420.099 337.093 420.291 337.093Z" fill="#3F3D56"/>
<path d="M414.328 337.093H416.614C416.806 337.093 416.962 336.925 416.962 336.718V335.537C416.962 335.329 416.806 335.161 416.614 335.161H414.328C414.136 335.161 413.981 335.329 413.981 335.537V336.718C413.981 336.925 414.136 337.093 414.328 337.093Z" fill="#3F3D56"/>
<path d="M408.366 337.093H410.652C410.844 337.093 411 336.925 411 336.718V335.537C411 335.329 410.844 335.161 410.652 335.161H408.366C408.174 335.161 408.019 335.329 408.019 335.537V336.718C408.019 336.925 408.174 337.093 408.366 337.093Z" fill="#3F3D56"/>
<path d="M402.404 337.093H404.69C404.882 337.093 405.038 336.925 405.038 336.718V335.537C405.038 335.329 404.882 335.161 404.69 335.161H402.404C402.212 335.161 402.057 335.329 402.057 335.537V336.718C402.057 336.925 402.212 337.093 402.404 337.093Z" fill="#3F3D56"/>
<path d="M396.442 337.093H398.728C398.92 337.093 399.076 336.925 399.076 336.718V335.537C399.076 335.329 398.92 335.161 398.728 335.161H396.442C396.25 335.161 396.095 335.329 396.095 335.537V336.718C396.095 336.925 396.25 337.093 396.442 337.093Z" fill="#3F3D56"/>
<path d="M390.48 337.093H392.766C392.958 337.093 393.114 336.925 393.114 336.718V335.537C393.114 335.329 392.958 335.161 392.766 335.161H390.48C390.288 335.161 390.132 335.329 390.132 335.537V336.718C390.132 336.925 390.288 337.093 390.48 337.093Z" fill="#3F3D56"/>
<path d="M384.518 337.093H386.804C386.996 337.093 387.151 336.925 387.151 336.718V335.537C387.151 335.329 386.996 335.161 386.804 335.161H384.518C384.326 335.161 384.17 335.329 384.17 335.537V336.718C384.17 336.925 384.326 337.093 384.518 337.093Z" fill="#3F3D56"/>
<path d="M378.556 337.093H380.842C381.034 337.093 381.189 336.925 381.189 336.718V335.537C381.189 335.329 381.034 335.161 380.842 335.161H378.556C378.364 335.161 378.208 335.329 378.208 335.537V336.718C378.208 336.925 378.364 337.093 378.556 337.093Z" fill="#3F3D56"/>
<path d="M372.593 337.093H374.88C375.072 337.093 375.227 336.925 375.227 336.718V335.537C375.227 335.329 375.072 335.161 374.88 335.161H372.593C372.402 335.161 372.246 335.329 372.246 335.537V336.718C372.246 336.925 372.402 337.093 372.593 337.093Z" fill="#3F3D56"/>
<path d="M366.631 337.093H368.918C369.109 337.093 369.265 336.925 369.265 336.718V335.537C369.265 335.329 369.109 335.161 368.918 335.161H366.631C366.44 335.161 366.284 335.329 366.284 335.537V336.718C366.284 336.925 366.44 337.093 366.631 337.093Z" fill="#3F3D56"/>
<path d="M360.669 337.093H362.955C363.147 337.093 363.303 336.925 363.303 336.718V335.537C363.303 335.329 363.147 335.161 362.955 335.161H360.669C360.477 335.161 360.322 335.329 360.322 335.537V336.718C360.322 336.925 360.477 337.093 360.669 337.093Z" fill="#3F3D56"/>
<path d="M354.707 337.093H356.993C357.185 337.093 357.341 336.925 357.341 336.718V335.537C357.341 335.329 357.185 335.161 356.993 335.161H354.707C354.515 335.161 354.36 335.329 354.36 335.537V336.718C354.36 336.925 354.515 337.093 354.707 337.093Z" fill="#3F3D56"/>
<path d="M394.653 340.958H417.807C417.999 340.958 418.154 340.79 418.154 340.583V339.401C418.154 339.194 417.999 339.026 417.807 339.026H394.653C394.461 339.026 394.306 339.194 394.306 339.401V340.583C394.306 340.79 394.461 340.958 394.653 340.958Z" fill="#3F3D56"/>
<path d="M370.123 275.827H368.099C367.485 275.827 366.988 276.365 366.988 277.028C366.988 277.69 367.485 278.228 368.099 278.228H370.123C370.737 278.228 371.234 277.69 371.234 277.028C371.234 276.365 370.737 275.827 370.123 275.827Z" fill="#6704B5"/>
<path d="M393.27 275.827H391.246C390.633 275.827 390.135 276.365 390.135 277.028C390.135 277.69 390.633 278.228 391.246 278.228H393.27C393.884 278.228 394.381 277.69 394.381 277.028C394.381 276.365 393.884 275.827 393.27 275.827Z" fill="#6704B5"/>
<path d="M399.829 275.827H397.805C397.191 275.827 396.694 276.365 396.694 277.028C396.694 277.69 397.191 278.228 397.805 278.228H399.829C400.442 278.228 400.94 277.69 400.94 277.028C400.94 276.365 400.442 275.827 399.829 275.827Z" fill="#6704B5"/>
<path d="M386.974 275.627H374.395C373.782 275.627 373.284 276.165 373.284 276.827C373.284 277.49 373.782 278.028 374.395 278.028H386.974C387.588 278.028 388.085 277.49 388.085 276.827C388.085 276.165 387.588 275.627 386.974 275.627Z" fill="white"/>
<path d="M417.837 275.627H405.258C404.645 275.627 404.147 276.165 404.147 276.827C404.147 277.49 404.645 278.028 405.258 278.028H417.837C418.451 278.028 418.948 277.49 418.948 276.827C418.948 276.165 418.451 275.627 417.837 275.627Z" fill="white"/>
<path d="M376.296 281.245H374.272C373.658 281.245 373.161 281.783 373.161 282.446C373.161 283.109 373.658 283.646 374.272 283.646H376.296C376.909 283.646 377.407 283.109 377.407 282.446C377.407 281.783 376.909 281.245 376.296 281.245Z" fill="#6704B5"/>
<path d="M399.443 281.245H397.419C396.805 281.245 396.308 281.783 396.308 282.446C396.308 283.109 396.805 283.646 397.419 283.646H399.443C400.057 283.646 400.554 283.109 400.554 282.446C400.554 281.783 400.057 281.245 399.443 281.245Z" fill="#6704B5"/>
<path d="M406.001 281.245H403.977C403.364 281.245 402.866 281.783 402.866 282.446C402.866 283.109 403.364 283.646 403.977 283.646H406.001C406.615 283.646 407.112 283.109 407.112 282.446C407.112 281.783 406.615 281.245 406.001 281.245Z" fill="#6704B5"/>
<path d="M393.147 281.045H380.568C379.954 281.045 379.457 281.583 379.457 282.246C379.457 282.908 379.954 283.446 380.568 283.446H393.147C393.76 283.446 394.258 282.908 394.258 282.246C394.258 281.583 393.76 281.045 393.147 281.045Z" fill="white"/>
<path d="M424.01 281.045H411.431C410.818 281.045 410.32 281.583 410.32 282.246C410.32 282.908 410.818 283.446 411.431 283.446H424.01C424.624 283.446 425.121 282.908 425.121 282.246C425.121 281.583 424.624 281.045 424.01 281.045Z" fill="white"/>
<path d="M382.468 286.663H380.444C379.831 286.663 379.333 287.201 379.333 287.864C379.333 288.527 379.831 289.064 380.444 289.064H382.468C383.082 289.064 383.579 288.527 383.579 287.864C383.579 287.201 383.082 286.663 382.468 286.663Z" fill="#6704B5"/>
<path d="M405.616 286.663H403.592C402.978 286.663 402.481 287.201 402.481 287.864C402.481 288.527 402.978 289.064 403.592 289.064H405.616C406.229 289.064 406.727 288.527 406.727 287.864C406.727 287.201 406.229 286.663 405.616 286.663Z" fill="#6704B5"/>
<path d="M412.174 286.663H410.15C409.537 286.663 409.039 287.201 409.039 287.864C409.039 288.527 409.537 289.064 410.15 289.064H412.174C412.788 289.064 413.285 288.527 413.285 287.864C413.285 287.201 412.788 286.663 412.174 286.663Z" fill="#6704B5"/>
<path d="M399.319 286.463H386.74C386.127 286.463 385.629 287.001 385.629 287.664C385.629 288.326 386.127 288.864 386.74 288.864H399.319C399.933 288.864 400.431 288.326 400.431 287.664C400.431 287.001 399.933 286.463 399.319 286.463Z" fill="white"/>
<path d="M430.183 286.463H417.604C416.99 286.463 416.493 287.001 416.493 287.664C416.493 288.326 416.99 288.864 417.604 288.864H430.183C430.796 288.864 431.294 288.326 431.294 287.664C431.294 287.001 430.796 286.463 430.183 286.463Z" fill="white"/>
<path d="M388.641 292.081H386.617C386.003 292.081 385.506 292.619 385.506 293.282C385.506 293.945 386.003 294.482 386.617 294.482H388.641C389.255 294.482 389.752 293.945 389.752 293.282C389.752 292.619 389.255 292.081 388.641 292.081Z" fill="#6704B5"/>
<path d="M411.788 292.081H409.764C409.151 292.081 408.653 292.619 408.653 293.282C408.653 293.945 409.151 294.482 409.764 294.482H411.788C412.402 294.482 412.899 293.945 412.899 293.282C412.899 292.619 412.402 292.081 411.788 292.081Z" fill="#6704B5"/>
<path d="M418.347 292.081H416.323C415.709 292.081 415.212 292.619 415.212 293.282C415.212 293.945 415.709 294.482 416.323 294.482H418.347C418.96 294.482 419.458 293.945 419.458 293.282C419.458 292.619 418.96 292.081 418.347 292.081Z" fill="#E5E5E5"/>
<path d="M405.492 291.881H392.913C392.299 291.881 391.802 292.419 391.802 293.082C391.802 293.745 392.299 294.282 392.913 294.282H405.492C406.106 294.282 406.603 293.745 406.603 293.082C406.603 292.419 406.106 291.881 405.492 291.881Z" fill="white"/>
<path d="M393.27 313.626H391.246C390.633 313.626 390.135 314.163 390.135 314.826C390.135 315.489 390.633 316.027 391.246 316.027H393.27C393.884 316.027 394.381 315.489 394.381 314.826C394.381 314.163 393.884 313.626 393.27 313.626Z" fill="#6704B5"/>
<path d="M399.829 313.626H397.805C397.191 313.626 396.694 314.163 396.694 314.826C396.694 315.489 397.191 316.027 397.805 316.027H399.829C400.442 316.027 400.94 315.489 400.94 314.826C400.94 314.163 400.442 313.626 399.829 313.626Z" fill="#6704B5"/>
<path d="M417.837 313.826H405.258C404.645 313.826 404.147 314.364 404.147 315.026C404.147 315.689 404.645 316.227 405.258 316.227H417.837C418.451 316.227 418.948 315.689 418.948 315.026C418.948 314.364 418.451 313.826 417.837 313.826Z" fill="white"/>
<path d="M370.123 313.626H368.099C367.485 313.626 366.988 314.163 366.988 314.826C366.988 315.489 367.485 316.027 368.099 316.027H370.123C370.737 316.027 371.234 315.489 371.234 314.826C371.234 314.163 370.737 313.626 370.123 313.626Z" fill="#6704B5"/>
<path d="M386.974 313.826H374.395C373.782 313.826 373.284 314.364 373.284 315.026C373.284 315.689 373.782 316.227 374.395 316.227H386.974C387.588 316.227 388.085 315.689 388.085 315.026C388.085 314.364 387.588 313.826 386.974 313.826Z" fill="white"/>
<path d="M376.296 308.208H374.272C373.658 308.208 373.161 308.745 373.161 309.408C373.161 310.071 373.658 310.609 374.272 310.609H376.296C376.909 310.609 377.407 310.071 377.407 309.408C377.407 308.745 376.909 308.208 376.296 308.208Z" fill="#6704B5"/>
<path d="M399.443 308.208H397.419C396.805 308.208 396.308 308.745 396.308 309.408C396.308 310.071 396.805 310.609 397.419 310.609H399.443C400.057 310.609 400.554 310.071 400.554 309.408C400.554 308.745 400.057 308.208 399.443 308.208Z" fill="#6704B5"/>
<path d="M406.001 308.208H403.977C403.364 308.208 402.866 308.745 402.866 309.408C402.866 310.071 403.364 310.609 403.977 310.609H406.001C406.615 310.609 407.112 310.071 407.112 309.408C407.112 308.745 406.615 308.208 406.001 308.208Z" fill="#E5E5E5"/>
<path d="M393.147 308.408H380.568C379.954 308.408 379.457 308.945 379.457 309.608C379.457 310.271 379.954 310.809 380.568 310.809H393.147C393.76 310.809 394.258 310.271 394.258 309.608C394.258 308.945 393.76 308.408 393.147 308.408Z" fill="white"/>
<path d="M382.468 302.79H380.444C379.831 302.79 379.333 303.327 379.333 303.99C379.333 304.653 379.831 305.19 380.444 305.19H382.468C383.082 305.19 383.579 304.653 383.579 303.99C383.579 303.327 383.082 302.79 382.468 302.79Z" fill="#6704B5"/>
<path d="M405.616 302.79H403.592C402.978 302.79 402.481 303.327 402.481 303.99C402.481 304.653 402.978 305.19 403.592 305.19H405.616C406.229 305.19 406.727 304.653 406.727 303.99C406.727 303.327 406.229 302.79 405.616 302.79Z" fill="#6704B5"/>
<path d="M412.174 302.79H410.15C409.537 302.79 409.039 303.327 409.039 303.99C409.039 304.653 409.537 305.19 410.15 305.19H412.174C412.788 305.19 413.285 304.653 413.285 303.99C413.285 303.327 412.788 302.79 412.174 302.79Z" fill="#E5E5E5"/>
<path d="M399.319 302.99H386.74C386.127 302.99 385.629 303.527 385.629 304.19C385.629 304.853 386.127 305.391 386.74 305.391H399.319C399.933 305.391 400.431 304.853 400.431 304.19C400.431 303.527 399.933 302.99 399.319 302.99Z" fill="white"/>
<path d="M388.641 297.372H386.617C386.003 297.372 385.506 297.909 385.506 298.572C385.506 299.235 386.003 299.772 386.617 299.772H388.641C389.255 299.772 389.752 299.235 389.752 298.572C389.752 297.909 389.255 297.372 388.641 297.372Z" fill="#6704B5"/>
<path d="M411.788 297.372H409.764C409.151 297.372 408.653 297.909 408.653 298.572C408.653 299.235 409.151 299.772 409.764 299.772H411.788C412.402 299.772 412.899 299.235 412.899 298.572C412.899 297.909 412.402 297.372 411.788 297.372Z" fill="#6704B5"/>
<path d="M418.347 297.372H416.323C415.709 297.372 415.212 297.909 415.212 298.572C415.212 299.235 415.709 299.772 416.323 299.772H418.347C418.96 299.772 419.458 299.235 419.458 298.572C419.458 297.909 418.96 297.372 418.347 297.372Z" fill="#E5E5E5"/>
<path d="M405.492 297.572H392.913C392.299 297.572 391.802 298.109 391.802 298.772C391.802 299.435 392.299 299.973 392.913 299.973H405.492C406.106 299.973 406.603 299.435 406.603 298.772C406.603 298.109 406.106 297.572 405.492 297.572Z" fill="white"/>
<path d="M359.363 377.124L349.861 360.899L379.684 335.216L391.994 320.483C393.593 318.569 395.629 317.142 397.899 316.345C400.169 315.547 402.592 315.407 404.928 315.938C407.263 316.47 409.429 317.654 411.208 319.373C412.987 321.092 414.318 323.285 415.066 325.733C416.176 329.361 415.937 333.313 414.401 336.755C412.864 340.196 410.15 342.859 406.832 344.18L387.367 351.926L359.363 377.124Z" fill="#FFB6B6"/>
<path d="M136.431 259.484V338.34H187.568V259.484C187.569 258.917 187.401 258.364 187.09 257.907C186.779 257.451 186.34 257.114 185.839 256.946C185.602 256.862 185.355 256.82 185.106 256.823H138.9C138.576 256.823 138.256 256.891 137.956 257.024C137.657 257.158 137.385 257.354 137.155 257.601C136.926 257.848 136.744 258.141 136.619 258.464C136.495 258.787 136.431 259.134 136.431 259.484ZM156.387 286.579C156.401 285.025 156.982 283.539 158.004 282.444C159.026 281.35 160.407 280.736 161.846 280.736C163.285 280.736 164.666 281.35 165.689 282.444C166.711 283.539 167.292 285.025 167.305 286.579V295.729C167.298 297.288 166.72 298.78 165.697 299.88C164.674 300.979 163.289 301.596 161.846 301.596C160.403 301.596 159.019 300.979 157.996 299.88C156.973 298.78 156.395 297.288 156.387 295.729V286.579Z" fill="#2F2E41"/>
<path d="M136.274 335.819V343.423C136.275 343.817 136.42 344.194 136.677 344.474C136.934 344.753 137.283 344.911 137.648 344.914H186.351C186.716 344.912 187.066 344.754 187.323 344.475C187.58 344.195 187.725 343.817 187.725 343.423V335.819H136.274Z" fill="#3F3D56"/>
<path d="M55.9844 140.676V284.657C55.9857 286.492 56.661 288.251 57.862 289.548C59.063 290.846 60.6915 291.575 62.3899 291.577H259.894C261.592 291.575 263.221 290.846 264.422 289.548C265.623 288.251 266.298 286.492 266.299 284.657V140.676C266.295 138.843 265.619 137.086 264.418 135.79C263.218 134.495 261.591 133.766 259.894 133.764H62.3899C60.693 133.766 59.066 134.495 57.8654 135.79C56.6648 137.086 55.9884 138.843 55.9844 140.676Z" fill="#3F3D56"/>
<path d="M60.6177 142.467V282.881C60.6192 283.861 60.9804 284.801 61.6221 285.494C62.2638 286.187 63.1336 286.577 64.0411 286.579H258.25C259.157 286.577 260.027 286.187 260.669 285.494C261.31 284.801 261.672 283.861 261.673 282.881V142.467C261.673 141.486 261.313 140.544 260.671 139.849C260.029 139.155 259.158 138.763 258.25 138.761H64.0411C63.1325 138.763 62.2618 139.155 61.62 139.849C60.9783 140.544 60.6178 141.486 60.6177 142.467Z" fill="#0E0E0E"/>
<path d="M96.6594 344.399C96.8571 344.667 97.1084 344.883 97.3943 345.031C97.6803 345.179 97.9936 345.254 98.3106 345.253H213.852C214.168 345.252 214.48 345.176 214.765 345.029C215.05 344.882 215.302 344.668 215.501 344.403C215.7 344.138 215.842 343.828 215.916 343.496C215.99 343.164 215.995 342.819 215.93 342.485L214.137 333.281C214.063 332.906 213.902 332.557 213.671 332.265C213.44 331.974 213.145 331.75 212.813 331.613C212.573 331.511 212.317 331.459 212.059 331.459H100.097C99.8389 331.459 99.583 331.511 99.3426 331.613C99.0107 331.75 98.7156 331.974 98.4844 332.265C98.2532 332.557 98.0931 332.906 98.0188 333.281L96.2253 342.485C96.1615 342.819 96.1673 343.164 96.2424 343.495C96.3175 343.826 96.46 344.135 96.6594 344.399Z" fill="#2F2E41"/>
<path d="M251.947 158.104H70.2268C70.0379 158.099 69.8582 158.015 69.7261 157.869C69.594 157.723 69.52 157.527 69.52 157.323C69.52 157.119 69.594 156.923 69.7261 156.777C69.8582 156.631 70.0379 156.547 70.2268 156.542H251.947C252.136 156.547 252.316 156.631 252.448 156.777C252.58 156.923 252.654 157.119 252.654 157.323C252.654 157.527 252.58 157.723 252.448 157.869C252.316 158.015 252.136 158.099 251.947 158.104Z" fill="#3F3D56"/>
<path d="M82.5966 152.556C84.9356 152.556 86.8317 150.462 86.8317 147.879C86.8317 145.296 84.9356 143.202 82.5966 143.202C80.2577 143.202 78.3616 145.296 78.3616 147.879C78.3616 150.462 80.2577 152.556 82.5966 152.556Z" fill="#3F3D56"/>
<path d="M97.227 152.556C99.566 152.556 101.462 150.462 101.462 147.879C101.462 145.296 99.566 143.202 97.227 143.202C94.888 143.202 92.9919 145.296 92.9919 147.879C92.9919 150.462 94.888 152.556 97.227 152.556Z" fill="#3F3D56"/>
<path d="M111.857 152.556C114.196 152.556 116.092 150.462 116.092 147.879C116.092 145.296 114.196 143.202 111.857 143.202C109.518 143.202 107.622 145.296 107.622 147.879C107.622 150.462 109.518 152.556 111.857 152.556Z" fill="#3F3D56"/>
<path d="M243.137 144.359H232.746C232.541 144.364 232.345 144.456 232.202 144.614C232.058 144.773 231.978 144.986 231.978 145.208C231.978 145.43 232.058 145.643 232.202 145.802C232.345 145.961 232.541 146.053 232.746 146.058H243.137C243.344 146.055 243.541 145.964 243.686 145.805C243.831 145.646 243.913 145.432 243.913 145.208C243.913 144.985 243.831 144.771 243.686 144.612C243.541 144.453 243.344 144.362 243.137 144.359Z" fill="#3F3D56"/>
<path d="M243.137 147.55H232.746C232.54 147.554 232.345 147.646 232.201 147.805C232.057 147.964 231.977 148.177 231.977 148.399C231.977 148.621 232.057 148.835 232.201 148.993C232.345 149.152 232.54 149.244 232.746 149.249H243.137C243.344 149.246 243.542 149.155 243.687 148.996C243.833 148.837 243.914 148.623 243.914 148.399C243.914 148.176 243.833 147.961 243.687 147.802C243.542 147.643 243.344 147.552 243.137 147.55Z" fill="#3F3D56"/>
<path d="M243.137 150.74H232.746C232.541 150.746 232.345 150.837 232.202 150.996C232.058 151.155 231.978 151.368 231.978 151.59C231.978 151.812 232.058 152.025 232.202 152.184C232.345 152.343 232.541 152.434 232.746 152.44H243.137C243.344 152.436 243.541 152.346 243.686 152.187C243.831 152.028 243.913 151.813 243.913 151.59C243.913 151.367 243.831 151.152 243.686 150.993C243.541 150.834 243.344 150.744 243.137 150.74Z" fill="#3F3D56"/>
<path d="M493.65 339.156C493.963 340.142 494.558 340.996 495.349 341.594C496.14 342.192 497.085 342.505 498.051 342.486L516.905 341.962C517.878 341.941 518.818 341.581 519.585 340.936C520.352 340.291 520.906 339.394 521.162 338.381L523.83 307.559C524.777 308.022 525.808 308.251 526.847 308.228C527.749 308.204 528.639 307.987 529.464 307.591C530.289 307.196 531.034 306.628 531.657 305.921C532.279 305.214 532.766 304.382 533.091 303.472C533.415 302.561 533.571 301.591 533.548 300.616C533.525 299.64 533.325 298.68 532.959 297.788C532.592 296.896 532.067 296.091 531.413 295.419C530.758 294.747 529.988 294.22 529.145 293.87C528.303 293.519 527.404 293.351 526.501 293.376C526.086 293.374 525.672 293.421 525.266 293.515C524.824 292.999 524.287 292.588 523.69 292.309C523.092 292.031 522.447 291.891 521.797 291.898L492.794 292.707C492.553 292.716 492.314 292.749 492.078 292.803C491.442 292.931 490.839 293.205 490.309 293.606C489.779 294.007 489.335 294.526 489.006 295.128C488.678 295.73 488.472 296.401 488.404 297.096C488.336 297.791 488.406 298.494 488.61 299.157L493.65 339.156ZM524.378 305.466L526.276 298.121C526.492 297.272 526.497 296.377 526.291 295.526C526.383 295.526 526.464 295.479 526.556 295.478C527.858 295.449 529.117 295.979 530.058 296.952C530.999 297.924 531.544 299.26 531.575 300.666C531.605 302.073 531.118 303.435 530.221 304.454C529.323 305.473 528.088 306.065 526.786 306.102C525.945 306.131 525.112 305.911 524.378 305.466Z" fill="#2F2E41"/>
<path d="M492.078 292.803C492.696 296.62 499.643 299.303 507.997 298.836C515.678 298.454 521.959 295.54 523.11 292.087C522.684 291.951 522.241 291.887 521.797 291.898L492.794 292.707C492.553 292.716 492.314 292.748 492.078 292.803Z" fill="#3F3D56"/>
<path d="M509.528 322.219C509.566 322.208 509.602 322.191 509.635 322.168L513.73 319.272C513.779 319.237 513.82 319.19 513.848 319.134C513.876 319.078 513.891 319.015 513.891 318.951C513.891 318.887 513.876 318.824 513.848 318.768C513.82 318.712 513.779 318.664 513.73 318.629L509.474 315.618C509.435 315.59 509.391 315.571 509.345 315.561C509.299 315.551 509.252 315.552 509.206 315.562C509.16 315.572 509.117 315.592 509.078 315.62C509.039 315.649 509.006 315.685 508.98 315.728C508.955 315.77 508.937 315.817 508.928 315.867C508.919 315.917 508.92 315.968 508.93 316.017C508.939 316.067 508.958 316.114 508.984 316.156C509.011 316.197 509.045 316.233 509.084 316.261L512.885 318.95L509.245 321.524C509.175 321.574 509.123 321.649 509.099 321.737C509.075 321.824 509.081 321.917 509.114 322.001C509.148 322.084 509.208 322.151 509.284 322.191C509.36 322.231 509.446 322.241 509.528 322.219H509.528Z" fill="#6704B5"/>
<path d="M503.06 322.541C503.129 322.522 503.191 322.482 503.238 322.425C503.285 322.367 503.316 322.296 503.326 322.221C503.335 322.145 503.324 322.067 503.292 321.999C503.261 321.93 503.212 321.873 503.15 321.835L499.376 319.497L503.024 316.57C503.061 316.54 503.093 316.502 503.117 316.459C503.141 316.415 503.157 316.367 503.163 316.317C503.17 316.268 503.168 316.217 503.156 316.168C503.145 316.119 503.125 316.073 503.097 316.032C503.069 315.992 503.034 315.958 502.994 315.932C502.954 315.906 502.91 315.889 502.863 315.881C502.817 315.874 502.77 315.877 502.725 315.889C502.68 315.901 502.637 315.923 502.6 315.953L498.515 319.231C498.468 319.269 498.43 319.319 498.405 319.377C498.38 319.434 498.368 319.498 498.372 319.562C498.375 319.625 498.394 319.687 498.425 319.741C498.456 319.796 498.499 319.841 498.55 319.872L502.796 322.502C502.876 322.551 502.971 322.565 503.06 322.541Z" fill="#6704B5"/>
<path d="M509.12 324.756C509.155 324.747 509.188 324.732 509.218 324.712C509.258 324.685 509.293 324.651 509.32 324.61C509.348 324.569 509.368 324.523 509.379 324.474C509.39 324.425 509.392 324.374 509.385 324.324C509.378 324.274 509.361 324.226 509.337 324.183L503.533 313.874C503.483 313.787 503.404 313.724 503.313 313.701C503.221 313.677 503.124 313.693 503.044 313.746C502.963 313.799 502.905 313.884 502.883 313.983C502.861 314.082 502.876 314.187 502.924 314.274L508.729 324.583C508.769 324.654 508.828 324.708 508.898 324.739C508.969 324.77 509.047 324.776 509.12 324.756Z" fill="#6704B5"/>
<path d="M182.799 200.546H151.348C150.065 200.546 149.024 201.67 149.024 203.056V206.375C149.024 207.761 150.065 208.885 151.348 208.885H182.799C184.082 208.885 185.123 207.761 185.123 206.375V203.056C185.123 201.67 184.082 200.546 182.799 200.546Z" fill="#6704B5"/>
<path d="M201.132 217.224H133.015C131.732 217.224 130.691 218.348 130.691 219.734V223.053C130.691 224.439 131.732 225.563 133.015 225.563H201.132C202.415 225.563 203.456 224.439 203.456 223.053V219.734C203.456 218.348 202.415 217.224 201.132 217.224Z" fill="white"/>
<path d="M201.132 233.902H133.015C131.732 233.902 130.691 235.026 130.691 236.412V239.732C130.691 241.118 131.732 242.241 133.015 242.241H201.132C202.415 242.241 203.456 241.118 203.456 239.732V236.412C203.456 235.026 202.415 233.902 201.132 233.902Z" fill="white"/>
<path d="M206.907 289.751L207.061 290.277L207.069 290.295L211.713 305.548L217.056 323.125L227.107 356.158L227.204 361.289V361.306L227.951 402.583L225.881 408.179L228.211 417.354C228.211 417.354 227.139 403.486 221.391 411.45C218.135 415.976 214.328 420.607 211.202 424.949C215.756 426.94 220.384 428.741 225.085 430.352C226.1 430.703 227.123 431.036 228.146 431.369C228.365 431.439 228.585 431.51 228.804 431.58C244.387 436.558 260.497 439.356 276.739 439.904C277.584 439.93 278.412 439.947 279.216 439.965C279.5 439.974 279.776 439.982 280.052 439.982C280.961 439.991 281.862 440 282.772 440C284.607 440 286.434 439.971 288.252 439.912C301.713 439.503 315.096 437.547 328.174 434.079C328.085 428.247 327.841 421.431 327.492 414.151C327.33 410.581 323.684 406.713 323.465 402.977C323.311 400.17 326.583 397.53 326.412 394.679C325.308 377.128 323.928 383.866 322.905 371.437C322.799 370.218 322.702 369.051 322.612 367.937C321.955 359.955 321.5 354.965 321.5 354.965L325.868 325.222L332.729 278.524L332.201 277.585L331.608 277.27L295.421 257.92L293.457 252.482C292.884 250.915 291.891 249.57 290.605 248.618C289.318 247.666 287.798 247.151 286.239 247.14L262.401 247.035C261.164 247.029 259.943 247.342 258.84 247.948C257.738 248.553 256.784 249.434 256.06 250.517L249.605 260.174L206.907 289.751Z" fill="#3F3D56"/>
<path d="M232.604 348.807L227.204 361.289L223.518 369.814L217.177 405.68L214.003 409.32L211.283 396.434L182.815 403.262C181.882 397.657 182.565 403.452 181.989 397.303C182.151 397.128 182.322 396.952 182.492 396.777C182.947 396.321 183.329 395.891 183.321 395.479C182.996 374.27 183.97 338.177 192.105 316.31C193.38 312.74 195.06 309.354 197.107 306.232C197.269 305.995 197.423 305.758 197.578 305.521C201.329 299.846 203.7 294.259 207.061 290.286V290.277C207.082 290.259 207.101 290.238 207.118 290.216C207.13 290.209 207.141 290.2 207.15 290.189L230.241 276.962L231.232 307.03L231.938 328.642L232.604 348.807Z" fill="#3F3D56"/>
<path d="M315.865 352.352L322.609 367.941L324.963 373.37L331.302 409.232L334.467 412.864L337.193 399.981L338.474 399.697L361.575 394.528L368.309 417.63C369.826 414.899 370.424 411.685 370.001 408.532C369.578 405.379 368.16 402.48 365.987 400.326C365.528 399.877 365.144 399.439 365.155 399.025C365.539 374.08 364.126 328.531 351.371 309.784C347.32 303.834 344.89 297.909 341.353 293.769C341.342 293.757 341.342 293.745 341.331 293.745L332.726 278.523L332.2 277.588L331.609 277.269L315.865 352.352Z" fill="#3F3D56"/>
<path d="M275.008 239.706C292.523 239.706 306.722 224.368 306.722 205.446C306.722 186.525 292.523 171.186 275.008 171.186C257.494 171.186 243.295 186.525 243.295 205.446C243.295 224.368 257.494 239.706 275.008 239.706Z" fill="#FFB6B6"/>
<path d="M317.873 181.516C317.627 181.232 317.331 181.005 317.002 180.848C316.673 180.69 316.318 180.606 315.958 180.601L316.435 179.171C316.591 178.72 316.633 178.233 316.557 177.759C316.481 177.286 316.29 176.842 316.003 176.474C315.716 176.107 315.344 175.828 314.925 175.667C314.505 175.506 314.054 175.468 313.616 175.557L311.88 175.918L312.044 174.665C312.106 174.198 312.056 173.722 311.896 173.283C311.737 172.844 311.474 172.457 311.135 172.16C310.795 171.864 310.39 171.668 309.959 171.592C309.528 171.517 309.086 171.563 308.677 171.728C308.305 171.886 307.905 171.952 307.506 171.922C307.107 171.891 306.719 171.764 306.371 171.551C306.022 171.344 305.719 171.057 305.483 170.711C305.247 170.364 305.084 169.966 305.005 169.544L304.4 166.392L304.336 166.223C301.389 160.917 295.724 157.057 288.791 155.643C282.621 154.374 276.294 155.02 270.194 155.627C267.774 155.873 265.041 156.15 262.764 157.657C260.828 158.949 259.191 161.532 259.525 164.139C253.511 162.148 247.063 166.123 243.867 171.136C240.081 177.102 239.462 184.576 239.362 190.419C239.092 204.244 241.732 215.554 247.191 224.043C247.59 224.658 247.689 225.942 248.479 226.372L248.316 226.088C249.198 226.565 250.095 227.334 249.76 228.156C248.8 230.524 255.184 235.761 259.682 237.491C267.888 240.651 278.799 240.382 286.471 239.244L286.742 237.283C289.51 236.875 291.46 236.099 292.008 234.884C292.976 233.992 293.802 233.192 294.521 232.454L294.528 232.447C294.542 232.431 294.571 232.408 294.585 232.393C298.051 228.802 298.855 226.757 299.218 223.643C299.567 220.59 298.948 217.492 298.314 214.701C311.652 216.931 293.062 199.354 305.489 195.955C305.631 195.908 305.776 195.869 305.923 195.84C306.286 195.748 306.649 195.656 306.997 195.548C308.679 195.055 310.288 194.312 311.78 193.341C315.253 191.058 316.399 188.028 318.193 184.614C318.452 184.128 318.56 183.566 318.503 183.008C318.445 182.451 318.224 181.928 317.873 181.516Z" fill="#2F2E41"/>
<path d="M387.173 354.792C387.166 356.137 387.152 358.021 387.095 360.351C387.088 360.673 387.081 361.004 387.074 361.342C386.981 365.625 386.889 369.216 386.739 373.206C386.732 373.483 386.725 373.752 386.711 374.029C386.511 379.596 386.198 386.077 385.657 396.342C384.654 415.303 382.903 398.949 381.145 405.599C381.059 405.93 380.967 406.322 380.882 406.783C380.615 408.457 380.166 410.091 379.544 411.65C378.611 412.25 377.65 412.827 376.704 413.404C374.006 415.026 371.266 416.587 368.505 418.071C366.953 418.901 365.394 419.716 363.829 420.5C363.58 420.623 363.338 420.746 363.096 420.862C355.077 424.868 346.814 428.275 338.363 431.057C336.712 431.595 335.068 432.118 333.402 432.603C331.666 433.125 329.929 433.618 328.171 434.079C315.093 437.547 301.711 439.504 288.251 439.915C286.436 439.976 284.606 439.999 282.77 439.999C281.859 439.999 280.962 439.992 280.051 439.984C279.774 439.984 279.496 439.976 279.219 439.969C278.414 439.945 277.582 439.93 276.742 439.907C260.5 439.36 244.39 436.561 228.807 431.58L228.145 431.372C227.12 431.034 226.103 430.703 225.085 430.35C220.387 428.743 215.759 426.944 211.199 424.952C207.719 423.438 204.279 421.813 200.879 420.077C200.848 420.068 200.819 420.053 200.794 420.031C200.082 419.678 199.363 419.309 198.651 418.932C198.559 418.878 198.459 418.824 198.36 418.77C195.705 417.371 193.079 415.905 190.481 414.372C188.296 408.952 185.221 407.914 183.314 403.147C182.759 401.73 182.357 400.249 182.118 398.733C182.118 398.718 182.111 398.702 182.111 398.679C182.31 401.54 181.264 393.605 182.104 398.649C182.097 398.556 182.09 398.456 182.082 398.341C182.061 398.064 182.033 397.726 181.99 397.303C179.549 371.553 179.705 342.105 178.645 317.839C178.574 316.27 178.5 314.768 178.424 313.333C178.403 312.857 178.374 312.388 178.346 311.926C178.396 311.788 178.453 311.642 178.517 311.503C178.53 311.463 178.547 311.425 178.566 311.388C178.587 311.34 178.611 311.294 178.638 311.25C178.652 311.227 178.673 311.196 178.687 311.173C178.698 311.146 178.71 311.121 178.723 311.096C178.787 310.988 178.858 310.873 178.937 310.765C178.972 310.719 179.001 310.681 179.036 310.642C179.061 310.603 179.089 310.567 179.122 310.535C179.143 310.498 179.17 310.464 179.2 310.435C179.228 310.404 179.257 310.365 179.292 310.327C179.308 310.303 179.327 310.282 179.349 310.265C179.406 310.196 179.468 310.131 179.534 310.073C179.788 309.821 180.06 309.589 180.346 309.381C180.445 309.312 180.552 309.243 180.652 309.166C181.369 308.702 182.124 308.311 182.908 307.997C183.178 307.89 183.449 307.79 183.741 307.682C183.847 307.651 183.947 307.613 184.054 307.574C184.21 307.521 184.367 307.467 184.531 307.428C185.342 307.167 186.218 306.944 187.164 306.736C187.278 306.713 187.399 306.69 187.52 306.659C187.691 306.621 187.869 306.59 188.047 306.559C188.289 306.513 188.538 306.467 188.787 306.421C190.901 306.06 193.299 305.791 195.947 305.614C196.196 305.598 196.445 305.583 196.694 305.568C196.986 305.552 197.278 305.537 197.577 305.521C197.826 305.506 198.082 305.498 198.338 305.491C198.587 305.475 198.844 305.468 199.107 305.46C199.826 305.437 200.566 305.414 201.32 305.398C203.47 305.352 205.733 305.368 208.11 305.421C209.213 305.452 210.338 305.483 211.491 305.537C211.569 305.537 211.64 305.544 211.712 305.544C212.715 305.583 213.726 305.629 214.765 305.691C215.491 305.729 216.224 305.767 216.957 305.814C217.647 305.86 218.345 305.906 219.049 305.96C219.597 305.99 220.145 306.037 220.701 306.075C221.17 306.113 221.64 306.152 222.11 306.183L222.75 306.229C223.099 306.26 223.448 306.283 223.804 306.321C224.587 306.39 225.37 306.459 226.167 306.529C226.957 306.606 227.761 306.682 228.565 306.759C229.369 306.836 230.181 306.921 230.992 307.005C231.078 307.013 231.156 307.021 231.234 307.028C231.974 307.113 232.715 307.19 233.462 307.274C233.633 307.29 233.811 307.305 233.981 307.328C234.694 307.406 235.42 307.496 236.139 307.579C236.36 307.604 236.58 307.629 236.801 307.655C237.364 307.722 237.919 307.779 238.487 307.851C239.234 307.943 239.995 308.028 240.736 308.136C241.312 308.205 241.889 308.274 242.465 308.351C243.369 308.466 244.287 308.589 245.205 308.72C245.554 308.766 245.903 308.812 246.251 308.866C248.871 309.22 251.518 309.612 254.209 310.019C258.287 310.642 262.429 311.319 266.6 312.049C270.778 312.78 274.979 313.551 279.204 314.364C280.272 314.571 281.34 314.779 282.414 314.994C282.898 315.094 283.382 315.194 283.866 315.294C284.692 315.455 285.517 315.625 286.343 315.794C287.169 315.963 287.994 316.132 288.82 316.309C289.802 316.516 290.791 316.724 291.773 316.932C298.243 318.316 304.677 319.792 310.954 321.337C311.986 321.591 313.018 321.853 314.043 322.106C316.093 322.621 318.124 323.144 320.136 323.675C320.691 323.813 321.239 323.959 321.787 324.105C323.153 324.474 324.52 324.843 325.865 325.22L326.1 325.289C327.089 325.551 328.057 325.82 329.025 326.097C331.31 326.743 333.556 327.396 335.765 328.057C337.231 328.496 338.681 328.939 340.114 329.388C342.256 330.056 344.356 330.733 346.398 331.417C346.904 331.587 347.409 331.756 347.907 331.917C349.402 332.417 350.875 332.924 352.306 333.432C353.444 333.832 354.555 334.239 355.651 334.647C356.747 335.054 357.822 335.462 358.875 335.869C359.551 336.131 360.22 336.407 360.889 336.669C361.85 337.053 362.797 337.438 363.722 337.822C364.007 337.938 364.284 338.061 364.562 338.176C364.74 338.26 364.91 338.33 365.081 338.407C365.416 338.553 365.757 338.691 366.085 338.837C366.419 338.976 366.747 339.122 367.074 339.275C367.394 339.414 367.722 339.56 368.035 339.706C368.355 339.844 368.668 339.99 368.981 340.144C369.245 340.26 369.501 340.383 369.75 340.506C370.255 340.744 370.761 340.982 371.252 341.228C371.494 341.351 371.736 341.467 371.978 341.59L372.533 341.867C372.611 341.913 372.69 341.951 372.768 341.99C372.946 342.082 373.131 342.182 373.309 342.274C373.721 342.482 374.127 342.705 374.526 342.912C375.06 343.204 375.579 343.497 376.077 343.781C376.583 344.073 377.074 344.365 377.544 344.65C377.622 344.696 377.693 344.742 377.771 344.788C377.878 344.85 377.985 344.919 378.092 344.981C378.455 345.204 378.803 345.434 379.152 345.657C379.835 346.111 380.483 346.557 381.088 347.003C381.223 347.103 381.351 347.203 381.486 347.295C381.935 347.641 382.362 347.979 382.76 348.325C382.76 348.333 382.76 348.333 382.768 348.333C382.903 348.44 383.031 348.556 383.159 348.663C383.266 348.771 383.38 348.863 383.486 348.971C383.857 349.317 384.198 349.648 384.511 349.986C384.616 350.09 384.716 350.201 384.81 350.317C384.852 350.354 384.89 350.395 384.924 350.44C385.066 350.593 385.195 350.747 385.316 350.901C385.334 350.922 385.351 350.945 385.365 350.97C385.536 351.185 385.693 351.401 385.842 351.616C385.913 351.724 385.992 351.831 386.056 351.939C386.141 352.07 386.227 352.208 386.298 352.339C386.362 352.446 386.419 352.562 386.476 352.669C386.627 352.946 386.755 353.237 386.86 353.538C386.94 353.742 387.004 353.953 387.052 354.169C387.106 354.373 387.147 354.581 387.173 354.792Z" fill="#2F2E41"/>
<path opacity="0.2" d="M387.173 354.792C387.166 356.137 387.152 358.021 387.095 360.351C387.088 360.674 387.074 361.004 387.067 361.342C386.995 364.61 386.889 368.647 386.739 373.206C386.732 373.483 386.725 373.752 386.711 374.029C386.511 379.596 386.198 386.077 385.657 396.342C384.654 415.303 382.903 398.949 381.145 405.599C376.263 402.355 370.91 398.956 365.188 395.466C364.156 394.835 363.115 394.202 362.064 393.566C350.619 386.669 337.836 379.442 324.492 372.284C323.965 371.999 323.431 371.715 322.904 371.438C292.336 355.114 258.97 339.237 231.939 328.642C226.722 326.597 221.74 324.751 217.057 323.129C207.192 319.723 198.666 317.339 192.104 316.309C185.271 315.232 180.552 315.617 178.645 317.839C178.574 316.27 178.5 314.769 178.424 313.333C178.396 312.857 178.367 312.388 178.339 311.926C178.383 311.8 178.44 311.679 178.495 311.557C178.503 311.539 178.509 311.521 178.517 311.503C178.53 311.463 178.547 311.425 178.567 311.388C178.587 311.34 178.611 311.294 178.638 311.25C178.661 311.195 178.689 311.143 178.723 311.096C178.787 310.988 178.858 310.873 178.937 310.765C178.994 310.685 179.056 310.608 179.122 310.534C179.143 310.498 179.17 310.464 179.2 310.435C179.228 310.404 179.257 310.365 179.292 310.327C179.308 310.303 179.327 310.282 179.349 310.265C179.406 310.196 179.468 310.131 179.534 310.073C179.788 309.821 180.06 309.589 180.346 309.381C180.445 309.312 180.552 309.243 180.652 309.166C181.369 308.702 182.124 308.311 182.908 307.997C183.178 307.89 183.449 307.79 183.741 307.682C183.847 307.651 183.947 307.613 184.054 307.574C184.21 307.521 184.367 307.467 184.531 307.428C185.342 307.167 186.218 306.944 187.164 306.736C187.449 306.675 187.748 306.613 188.047 306.559C188.289 306.513 188.538 306.467 188.787 306.421C190.901 306.06 193.299 305.79 195.947 305.614C196.196 305.598 196.445 305.583 196.694 305.568C196.986 305.552 197.278 305.537 197.577 305.521C197.826 305.506 198.082 305.498 198.338 305.491C198.587 305.475 198.844 305.468 199.107 305.46C199.826 305.437 200.566 305.414 201.32 305.398C203.47 305.36 205.733 305.375 208.11 305.429C209.213 305.452 210.338 305.491 211.491 305.544C211.562 305.544 211.64 305.552 211.712 305.552C212.715 305.583 213.733 305.637 214.765 305.691C215.491 305.729 216.224 305.767 216.957 305.814C217.647 305.86 218.345 305.906 219.049 305.96C219.597 305.99 220.145 306.037 220.701 306.075C221.17 306.113 221.64 306.152 222.11 306.183C222.672 306.229 223.234 306.275 223.804 306.321C224.587 306.39 225.37 306.459 226.167 306.529C226.957 306.606 227.761 306.682 228.565 306.759C229.369 306.836 230.181 306.921 230.992 307.005C231.078 307.013 231.156 307.021 231.234 307.028C231.974 307.113 232.715 307.19 233.462 307.274C237.604 307.728 241.867 308.259 246.252 308.866C248.871 309.227 251.523 309.614 254.209 310.027C258.287 310.65 262.429 311.326 266.6 312.049C270.778 312.78 274.979 313.551 279.204 314.364C280.272 314.571 281.34 314.779 282.414 314.994C283.724 315.255 285.034 315.522 286.343 315.794C287.169 315.963 287.994 316.132 288.82 316.309C289.802 316.516 290.791 316.724 291.774 316.932C298.243 318.316 304.677 319.792 310.955 321.337C311.987 321.591 313.019 321.852 314.043 322.106C316.093 322.621 318.124 323.144 320.136 323.675C320.691 323.821 321.239 323.967 321.787 324.113C323.161 324.482 324.52 324.851 325.865 325.22V325.228C325.943 325.243 326.022 325.266 326.1 325.289C327.082 325.559 328.057 325.828 329.025 326.104C331.31 326.75 333.557 327.401 335.765 328.057C337.231 328.503 338.683 328.942 340.114 329.388C342.256 330.064 344.356 330.741 346.399 331.417C346.904 331.587 347.409 331.756 347.907 331.917C349.402 332.425 350.868 332.93 352.306 333.432C353.445 333.832 354.555 334.239 355.651 334.647C356.747 335.054 357.822 335.462 358.875 335.869C359.558 336.131 360.227 336.4 360.889 336.661C361.857 337.046 362.797 337.43 363.722 337.822C364.007 337.938 364.284 338.061 364.562 338.176C365.081 338.391 365.587 338.614 366.085 338.837C366.419 338.976 366.747 339.122 367.074 339.275C367.394 339.414 367.722 339.56 368.035 339.706C368.355 339.844 368.668 339.99 368.982 340.144C369.245 340.26 369.501 340.383 369.75 340.506C370.256 340.744 370.761 340.982 371.252 341.228C371.494 341.351 371.736 341.467 371.978 341.59L372.533 341.867C372.611 341.913 372.69 341.951 372.768 341.99C373.373 342.297 373.957 342.605 374.526 342.912C375.06 343.204 375.579 343.497 376.077 343.781C376.668 344.119 377.23 344.45 377.771 344.788C377.878 344.85 377.985 344.919 378.092 344.981C378.455 345.204 378.803 345.434 379.152 345.657C379.835 346.111 380.483 346.557 381.088 347.003C381.686 347.449 382.241 347.887 382.761 348.325C382.761 348.333 382.761 348.333 382.768 348.333C383.017 348.548 383.259 348.763 383.487 348.971C383.857 349.317 384.198 349.648 384.511 349.986C384.616 350.09 384.716 350.201 384.81 350.317C384.852 350.354 384.89 350.395 384.924 350.44C385.074 350.616 385.223 350.793 385.366 350.97C385.536 351.185 385.693 351.401 385.842 351.616C385.914 351.724 385.992 351.831 386.056 351.939C386.141 352.07 386.227 352.208 386.298 352.339C386.362 352.446 386.419 352.562 386.476 352.669C386.627 352.946 386.755 353.237 386.86 353.538C386.938 353.743 387.002 353.954 387.052 354.169C387.106 354.373 387.147 354.581 387.173 354.792Z" fill="black"/>
</g>
<defs>
<clipPath id="clip0_59_57">
<rect width="560" height="440" fill="white"/>
</clipPath>
</defs>
</svg>
