<svg width="57" height="57" viewBox="0 0 57 57" fill="none" xmlns="http://www.w3.org/2000/svg">
<path fill-rule="evenodd" clip-rule="evenodd" d="M28.4985 0C12.76 0 0 13.0838 0 29.2232C0 42.1339 8.16416 53.0868 19.4903 56.9486C20.9168 57.2191 21.4357 56.3192 21.4357 55.5422C21.4357 54.8499 21.4108 53.0134 21.3984 50.5723C13.4703 52.3398 11.7975 46.6543 11.7975 46.6543C10.5012 43.2788 8.63258 42.3812 8.63258 42.3812C6.04492 40.5695 8.82915 40.6047 8.82915 40.6047C11.6894 40.8122 13.1948 43.6153 13.1948 43.6153C15.7364 48.0809 19.866 46.7884 21.489 46.0452C21.747 44.1532 22.485 42.8682 23.2984 42.1362C16.9707 41.3989 10.3177 38.8918 10.3177 27.6947C10.3177 24.5035 11.4278 21.8945 13.2503 19.8513C12.9587 19.1155 11.9788 16.1446 13.5302 12.1195C13.5302 12.1195 15.9227 11.3343 21.3684 15.1174C23.6404 14.4662 26.079 14.1411 28.5029 14.1313C30.9232 14.1418 33.3625 14.4662 35.6374 15.1174C41.0795 11.3343 43.4683 12.1195 43.4683 12.1195C45.0234 16.1446 44.0442 19.1155 43.7519 19.8513C45.5788 21.8945 46.6808 24.5035 46.6808 27.6947C46.6808 38.9181 40.0184 41.3907 33.6695 42.1115C34.6911 43.0143 35.6031 44.8014 35.6031 47.528C35.6031 51.4324 35.5687 54.5831 35.5687 55.5415C35.5687 56.3245 36.081 57.2348 37.5279 56.9449C48.8417 53.0749 57 42.1302 57 29.2232C57 13.0838 44.24 0 28.4985 0V0Z" fill="#6000AB"/>
</svg>
