<svg width="41" height="36" viewBox="0 0 41 36" fill="none" xmlns="http://www.w3.org/2000/svg">
<path d="M15.0234 36C13.4766 36 12.0234 35.7109 10.6641 35.1328C9.30469 34.5391 8.10938 33.7344 7.07812 32.7188C6.0625 31.6875 5.25781 30.4922 4.66406 29.1328C4.08594 27.7734 3.79688 26.3203 3.79688 24.7734V17.3203H0.679688V10.9453H3.79688V0.914062H10.1719V10.9453H19.875V17.3203H10.1719V24.7734C10.1719 25.4453 10.2969 26.0781 10.5469 26.6719C10.7969 27.25 11.1406 27.7578 11.5781 28.1953C12.0156 28.6328 12.5312 28.9844 13.125 29.25C13.7188 29.5 14.3516 29.625 15.0234 29.625H19.875V36H15.0234Z" fill="url(#paint0_linear_25_128)"/>
<path d="M24.1228 36H17.7244V0.914062H24.1228V12C24.8884 11.4219 25.6775 11.0156 26.49 10.7812C27.3025 10.5312 28.1306 10.4062 28.9744 10.4062C30.5212 10.4062 31.9744 10.7031 33.3337 11.2969C34.6931 11.875 35.8728 12.6797 36.8728 13.7109C37.8884 14.7266 38.6853 15.9219 39.2634 17.2969C39.8572 18.6562 40.1541 20.1094 40.1541 21.6562V36H33.7087V21.6562H33.7556C33.7556 21 33.6306 20.3828 33.3806 19.8047C33.1306 19.2109 32.7869 18.6953 32.3494 18.2578C31.9119 17.8203 31.4041 17.4766 30.8259 17.2266C30.2478 16.9766 29.6306 16.8516 28.9744 16.8516C28.3025 16.8516 27.6697 16.9766 27.0759 17.2266C26.4822 17.4766 25.9666 17.8203 25.5291 18.2578C25.0916 18.6953 24.7478 19.2109 24.4978 19.8047C24.2478 20.3828 24.1228 21 24.1228 21.6562V36Z" fill="white"/>
<defs>
<linearGradient id="paint0_linear_25_128" x1="33.7719" y1="-4.93023" x2="-0.773259" y2="29.5104" gradientUnits="userSpaceOnUse">
<stop stop-color="#AD00FF"/>
<stop offset="1" stop-color="#50177C"/>
</linearGradient>
</defs>
</svg>
